<svg xmlns="http://www.w3.org/2000/svg" width="20" height="24" viewBox="0 0 20 24">
    <g fill="#FFF" fill-rule="nonzero">
        <path d="M1.595 9.123c-1.984 3.442-.723 8.664 1.47 11.831 1.095 1.583 2.203 3.004 3.721 3.004l.087-.001c.713-.029 1.228-.249 1.727-.46.56-.24 1.138-.486 2.045-.486.864 0 1.415.239 1.948.47.525.227 1.066.462 1.865.447 1.71-.032 2.76-1.566 3.686-2.918a12.935 12.935 0 0 0 1.615-3.308l.007-.021a.192.192 0 0 0-.102-.236l-.015-.006c-.3-.123-2.942-1.295-2.97-4.489-.025-2.594 1.982-3.968 2.384-4.217l.02-.012a.192.192 0 0 0 .054-.27c-1.386-2.028-3.51-2.333-4.364-2.37a3.849 3.849 0 0 0-.381-.019c-1.004 0-1.966.38-2.739.684-.533.21-.994.392-1.312.392-.357 0-.82-.184-1.357-.396-.718-.285-1.531-.608-2.392-.608h-.06c-2.003.03-3.895 1.175-4.937 2.99z"/>
        <path d="M14.774.5c-1.212.05-2.666.796-3.536 1.814-.738.856-1.46 2.283-1.27 3.72.012.09.085.16.176.167.082.007.165.01.248.01 1.186 0 2.465-.656 3.338-1.712.92-1.115 1.384-2.546 1.243-3.828a.193.193 0 0 0-.199-.17z"/>
    </g>
</svg>
