<svg xmlns="http://www.w3.org/2000/svg" width="23" height="24" viewBox="0 0 23 24">
    <g fill="none" fill-rule="nonzero">
        <path fill="#00F566" d="M5.148.875a2.808 2.808 0 0 0-2.815.007l10.35 9.846 3.477-3.586L5.148.875z"/>
        <path fill="#00D6FF" d="M1.298 1.89a2.794 2.794 0 0 0-.397 1.43v17.782c0 .501.132.978.37 1.396L11.68 11.764 1.299 1.89z"/>
        <path fill="#FFB900" d="M20.77 9.766l-3.317-1.887-3.727 3.842 4.567 4.343 2.478-1.41a2.79 2.79 0 0 0 1.425-2.444 2.786 2.786 0 0 0-1.427-2.444z"/>
        <path fill="#FF003E" d="M12.723 12.757L2.286 23.52c.453.267.95.407 1.45.407.482 0 .968-.125 1.412-.379l11.836-6.736-4.261-4.054z"/>
    </g>
</svg>
